<svg xmlns="http://www.w3.org/2000/svg" width="514.123" height="127.079" viewBox="0 0 514.123 127.079">
  <path id="idh-the-sustainable-trade-initiative-logo-vector" d="M20.5,373.594H45.864V297.415H20.5Zm165.212-76.179H174.829V246.6H149.465v50.815H130.955V259.282H105.591v38.132H92.909a38.132,38.132,0,1,0,38.132,38.132V322.865H149.55V361h25.364V322.865H185.8a12.654,12.654,0,0,1,12.682,12.682v38.132h25.364V335.547a38.162,38.162,0,0,0-38.132-38.132ZM92.823,348.229h0a12.782,12.782,0,0,1-12.768-12.682h0a12.654,12.654,0,0,1,12.682-12.682H105.42v12.682a12.527,12.527,0,0,1-12.6,12.682Zm244.39-24.936a15.39,15.39,0,0,1-4.285-.686,13.761,13.761,0,0,1-4.113-2.228l2.4-3.6a14.133,14.133,0,0,0,3.171,1.714,7.8,7.8,0,0,0,3,.6,2.813,2.813,0,0,0,1.8-.429,1.307,1.307,0,0,0,.6-1.028v-.086a1.047,1.047,0,0,0-.343-.771,3.08,3.08,0,0,0-.857-.6,4.516,4.516,0,0,0-1.285-.428,10.353,10.353,0,0,0-1.542-.428,19.285,19.285,0,0,1-2.057-.686,8.4,8.4,0,0,1-1.885-1.114,4.976,4.976,0,0,1-1.371-1.628,5.217,5.217,0,0,1-.514-2.4v-.086a5.289,5.289,0,0,1,.6-2.656,5.626,5.626,0,0,1,1.542-1.971,8.043,8.043,0,0,1,2.228-1.2,9.846,9.846,0,0,1,2.828-.343,14.768,14.768,0,0,1,3.77.514,16.43,16.43,0,0,1,3.513,1.628l-2.142,3.856a21.371,21.371,0,0,0-2.828-1.371,7.119,7.119,0,0,0-2.4-.514,3.422,3.422,0,0,0-1.542.343,1.184,1.184,0,0,0-.514.943v.086a.779.779,0,0,0,.343.685,7.412,7.412,0,0,0,.857.6,9.972,9.972,0,0,0,1.285.514,16.176,16.176,0,0,0,1.542.514l2.057.771a8.4,8.4,0,0,1,1.885,1.114,4.236,4.236,0,0,1,1.371,1.628,4.625,4.625,0,0,1,.514,2.314v.086a5.626,5.626,0,0,1-.6,2.742,5.852,5.852,0,0,1-1.542,1.971,7.24,7.24,0,0,1-2.314,1.114,10.645,10.645,0,0,1-3.171.514Zm17.738,0a6.259,6.259,0,0,1-4.884-1.971,7.829,7.829,0,0,1-1.714-5.227V303.413h5.57V314.3a4.472,4.472,0,0,0,.857,3,3,3,0,0,0,2.485.943,3.3,3.3,0,0,0,2.571-.943,4.331,4.331,0,0,0,.943-3V303.413h5.484v19.452h-5.484v-2.828c-.343.428-.686.771-1.028,1.2a8.428,8.428,0,0,1-1.285,1.028,12.143,12.143,0,0,1-1.542.686,5.028,5.028,0,0,1-1.971.343Zm23.136,0a14.815,14.815,0,0,1-4.2-.686,13.762,13.762,0,0,1-4.113-2.228l2.314-3.6a14.4,14.4,0,0,0,3.171,1.714,7.7,7.7,0,0,0,2.914.6,2.813,2.813,0,0,0,1.8-.429,1.221,1.221,0,0,0,.514-1.028v-.086a1.047,1.047,0,0,0-.343-.771,3.08,3.08,0,0,0-.857-.6,7.539,7.539,0,0,0-1.285-.428,13.2,13.2,0,0,0-1.457-.428,19.28,19.28,0,0,1-2.057-.686,6.081,6.081,0,0,1-1.885-1.114,4.976,4.976,0,0,1-1.371-1.628,5.217,5.217,0,0,1-.514-2.4v-.086a5.289,5.289,0,0,1,.6-2.656,4.954,4.954,0,0,1,1.542-1.971,7,7,0,0,1,2.228-1.2,9.63,9.63,0,0,1,2.742-.343,12.912,12.912,0,0,1,7.284,2.142l-2.057,3.856c-.943-.514-1.885-.943-2.828-1.371a7.119,7.119,0,0,0-2.4-.514,2.77,2.77,0,0,0-1.457.343,1.184,1.184,0,0,0-.514.943v.086a.779.779,0,0,0,.343.685,7.412,7.412,0,0,0,.857.6c.343.171.771.343,1.2.514.514.171.943.343,1.542.514l2.057.771a8.4,8.4,0,0,1,1.885,1.114,4.236,4.236,0,0,1,1.371,1.628,4.625,4.625,0,0,1,.514,2.314v.086a5.626,5.626,0,0,1-.6,2.742,4.954,4.954,0,0,1-1.542,1.971,6.887,6.887,0,0,1-2.4,1.114,9.2,9.2,0,0,1-3,.514ZM396,323.208a9.557,9.557,0,0,1-2.314-.257,4.534,4.534,0,0,1-1.8-.943,3.806,3.806,0,0,1-1.114-1.8,8.769,8.769,0,0,1-.428-2.742v-9.255h-2.314V303.5h2.314v-4.97h5.484v4.97h4.542v4.713h-4.542v8.4c0,1.285.6,1.885,1.8,1.885a6.183,6.183,0,0,0,2.742-.686v4.37a12.615,12.615,0,0,1-1.885.857,19.952,19.952,0,0,1-2.485.171Zm14.139.086a8.12,8.12,0,0,1-2.571-.343,6.384,6.384,0,0,1-2.142-1.114,5.314,5.314,0,0,1-1.457-1.885,6.147,6.147,0,0,1-.514-2.485v-.086a5.626,5.626,0,0,1,.6-2.742,4.369,4.369,0,0,1,1.628-1.885,6.644,6.644,0,0,1,2.485-1.114,12.326,12.326,0,0,1,3.171-.428,11.328,11.328,0,0,1,2.571.257,19.991,19.991,0,0,1,2.142.6v-.343a3.422,3.422,0,0,0-1.028-2.656,4.574,4.574,0,0,0-3.085-.943,14.444,14.444,0,0,0-2.828.257,14.66,14.66,0,0,0-2.571.771l-1.371-4.2a21.838,21.838,0,0,1,3.342-1.114,19.8,19.8,0,0,1,4.2-.429,12.351,12.351,0,0,1,3.856.514,6.355,6.355,0,0,1,2.656,1.628,6.571,6.571,0,0,1,1.628,2.656,11.217,11.217,0,0,1,.514,3.513v11.311h-5.313v-2.142a7.079,7.079,0,0,1-2.4,1.8,10.346,10.346,0,0,1-3.513.6Zm1.714-3.856a5.165,5.165,0,0,0,3.171-.943,2.886,2.886,0,0,0,1.2-2.4v-.943a5.171,5.171,0,0,0-1.628-.514,6.722,6.722,0,0,0-1.885-.171,5.3,5.3,0,0,0-2.828.686,2.194,2.194,0,0,0-1.028,1.971v.086a1.9,1.9,0,0,0,.857,1.714,4.622,4.622,0,0,0,2.142.514Zm14.31-23.051h5.827v4.884H426.16Zm.086,7.027h5.484v19.452h-5.484Zm10.711,0h5.57v2.828c.343-.428.686-.771,1.028-1.2a8.432,8.432,0,0,1,1.285-1.028,6.429,6.429,0,0,1,1.542-.685,6.722,6.722,0,0,1,1.885-.171,6.208,6.208,0,0,1,4.884,1.885,7.493,7.493,0,0,1,1.714,5.313v12.6h-5.484V312.068a4.472,4.472,0,0,0-.857-3,3.051,3.051,0,0,0-2.485-1.028,3.169,3.169,0,0,0-2.485,1.028,4.331,4.331,0,0,0-.943,3v10.8h-5.57l-.086-19.452Zm28.192,19.88a9.04,9.04,0,0,1-2.656-.343,6.383,6.383,0,0,1-2.142-1.114,5.314,5.314,0,0,1-1.457-1.885,6.147,6.147,0,0,1-.514-2.485v-.086a5.626,5.626,0,0,1,.6-2.742,5.016,5.016,0,0,1,1.628-1.885,7.33,7.33,0,0,1,2.485-1.114,12.326,12.326,0,0,1,3.171-.428,10.815,10.815,0,0,1,2.571.257,15.621,15.621,0,0,1,2.142.6v-.343a3.422,3.422,0,0,0-1.028-2.656,4.666,4.666,0,0,0-3.171-.943,14.444,14.444,0,0,0-2.828.257,17.216,17.216,0,0,0-2.571.771l-1.371-4.2a25.466,25.466,0,0,1,3.342-1.114,19.8,19.8,0,0,1,4.2-.429,13.331,13.331,0,0,1,3.942.514,6.355,6.355,0,0,1,2.656,1.628,7.666,7.666,0,0,1,1.628,2.656,11.216,11.216,0,0,1,.514,3.513v11.311h-5.313v-2.142a7.405,7.405,0,0,1-2.485,1.8,9.324,9.324,0,0,1-3.342.6Zm1.628-3.856a5.165,5.165,0,0,0,3.171-.943,2.887,2.887,0,0,0,1.2-2.4v-.943a5.171,5.171,0,0,0-1.628-.514,7.03,7.03,0,0,0-1.885-.171,4.778,4.778,0,0,0-2.742.686,2.194,2.194,0,0,0-1.028,1.971v.086a1.9,1.9,0,0,0,.857,1.714,4.242,4.242,0,0,0,2.057.514Zm25.879,3.856a6.9,6.9,0,0,1-3.685-.857,7.865,7.865,0,0,1-2.4-2.057v2.571h-5.484V296.472h5.57v9.854a8.788,8.788,0,0,1,2.4-2.314,6.592,6.592,0,0,1,3.6-.857,8.447,8.447,0,0,1,3.256.6,7.336,7.336,0,0,1,2.828,1.971,9.065,9.065,0,0,1,1.971,3.171,11.234,11.234,0,0,1,.771,4.285v.086a10.93,10.93,0,0,1-.771,4.285,11.2,11.2,0,0,1-1.971,3.085,7.335,7.335,0,0,1-2.828,1.971,7.894,7.894,0,0,1-3.256.686Zm-1.371-4.713a4.65,4.65,0,0,0,3.428-1.371,5.7,5.7,0,0,0,1.028-1.714,6.069,6.069,0,0,0,.428-2.228v-.086a6.437,6.437,0,0,0-.428-2.228,5.7,5.7,0,0,0-1.028-1.714,5.086,5.086,0,0,0-1.542-1.114,4.612,4.612,0,0,0-1.885-.343,4.214,4.214,0,0,0-1.8.343,3.177,3.177,0,0,0-1.457,1.114A5.7,5.7,0,0,0,487,310.954a6.438,6.438,0,0,0-.428,2.228v.086A6.438,6.438,0,0,0,487,315.5a5.7,5.7,0,0,0,1.028,1.714,4.13,4.13,0,0,0,1.457,1.028,5.6,5.6,0,0,0,1.8.343Zm14.567-22.194h5.484v26.478h-5.484Zm19.795,26.907a12.025,12.025,0,0,1-4.028-.686,9.991,9.991,0,0,1-3.256-2.057,9.025,9.025,0,0,1-2.142-3.171,10.357,10.357,0,0,1-.771-4.113v-.086a12.3,12.3,0,0,1,.686-3.942,9.759,9.759,0,0,1,1.971-3.256,8.691,8.691,0,0,1,3.085-2.142,9.8,9.8,0,0,1,3.942-.771,9.193,9.193,0,0,1,4.2.857,10.036,10.036,0,0,1,3,2.314,9.524,9.524,0,0,1,1.714,3.342,14.776,14.776,0,0,1,.514,5.484H520.934a4.628,4.628,0,0,0,1.628,2.828,5.267,5.267,0,0,0,3.085.943,5.86,5.86,0,0,0,2.485-.514,9.829,9.829,0,0,0,2.228-1.457l3.171,2.742a9.981,9.981,0,0,1-3.342,2.656,8.3,8.3,0,0,1-4.541,1.028Zm3.6-11.654a5.644,5.644,0,0,0-1.285-3,4.146,4.146,0,0,0-5.656,0,5.726,5.726,0,0,0-1.371,3ZM267.889,361.254a9.555,9.555,0,0,1-2.314-.257,4.534,4.534,0,0,1-1.8-.943,5.66,5.66,0,0,1-1.2-1.714,8.927,8.927,0,0,1-.428-2.828v-9.255h-2.314v-4.713h2.314v-4.97h5.484v4.97h4.542v4.713h-4.456v8.4c0,1.285.6,1.885,1.8,1.885a5.316,5.316,0,0,0,2.742-.771v4.37a12.614,12.614,0,0,1-1.885.857,11.072,11.072,0,0,1-2.485.257Zm9.769-19.709h5.484V345.4a9.792,9.792,0,0,1,2.314-3.171,5.558,5.558,0,0,1,3.942-1.114v5.741h-.257a5.483,5.483,0,0,0-4.285,1.714,7.472,7.472,0,0,0-1.628,5.227V361h-5.484V341.545Zm20.823,19.795A8.12,8.12,0,0,1,295.91,361a6.384,6.384,0,0,1-2.142-1.114,4.8,4.8,0,0,1-1.371-1.8,6.261,6.261,0,0,1-.514-2.571v-.086a5.625,5.625,0,0,1,.6-2.742,6.085,6.085,0,0,1,1.628-1.971A7.331,7.331,0,0,1,296.6,349.6a12.412,12.412,0,0,1,3.171-.343,11.876,11.876,0,0,1,2.571.257,15.641,15.641,0,0,1,2.142.6v-.343a3.3,3.3,0,0,0-1.028-2.656,4.574,4.574,0,0,0-3.085-.943,14.444,14.444,0,0,0-2.828.257,17.213,17.213,0,0,0-2.571.771L293.6,343a25.468,25.468,0,0,1,3.342-1.114,19.8,19.8,0,0,1,4.2-.428,10.9,10.9,0,0,1,3.942.6,6.354,6.354,0,0,1,2.656,1.628,5.589,5.589,0,0,1,1.542,2.656,11.215,11.215,0,0,1,.514,3.513v11.311h-5.313v-2.057a9.441,9.441,0,0,1-2.4,1.714,15.175,15.175,0,0,1-3.6.514Zm1.714-3.77a4.9,4.9,0,0,0,3.085-.943,3.047,3.047,0,0,0,1.2-2.485V353.2a5.171,5.171,0,0,0-1.628-.514,7.027,7.027,0,0,0-1.885-.171,4.977,4.977,0,0,0-2.742.686,2.194,2.194,0,0,0-1.028,1.971v.086a1.814,1.814,0,0,0,.857,1.714,3.745,3.745,0,0,0,2.142.6Zm22.622,3.77a7.793,7.793,0,0,1-3.342-.685,10.2,10.2,0,0,1-2.828-1.885,9.065,9.065,0,0,1-1.971-3.171,11.234,11.234,0,0,1-.771-4.285v-.086a10.931,10.931,0,0,1,.771-4.285,8.685,8.685,0,0,1,1.971-3.085,7.337,7.337,0,0,1,2.828-1.971,8.962,8.962,0,0,1,3.342-.685,6.592,6.592,0,0,1,3.6.857,9.479,9.479,0,0,1,2.4,2.057v-9.6H334.3V361h-5.484v-2.742a7.763,7.763,0,0,1-2.485,2.228,6.855,6.855,0,0,1-3.513.857Zm1.457-4.627a5.6,5.6,0,0,0,1.8-.343,3.177,3.177,0,0,0,1.457-1.114,4.81,4.81,0,0,0,1.028-1.714,4.879,4.879,0,0,0,.343-2.228v-.086a9.317,9.317,0,0,0-.343-2.228,5.7,5.7,0,0,0-1.028-1.714,5.991,5.991,0,0,0-1.457-1.114,4.605,4.605,0,0,0-1.8-.428,4.82,4.82,0,0,0-3.342,1.542A7.005,7.005,0,0,0,319.9,349a6.087,6.087,0,0,0-.343,2.228v.086a6.389,6.389,0,0,0,.343,2.228,7,7,0,0,0,1.028,1.714,5.087,5.087,0,0,0,1.542,1.114A5.6,5.6,0,0,0,324.274,356.713Zm24.85,4.713a12.025,12.025,0,0,1-4.027-.685,10.541,10.541,0,0,1-3.256-2.057,9.876,9.876,0,0,1-2.142-3.171,10.355,10.355,0,0,1-.771-4.113v-.086a12.3,12.3,0,0,1,.686-3.942,9.249,9.249,0,0,1,5.056-5.313,9.391,9.391,0,0,1,3.856-.771,9.192,9.192,0,0,1,4.2.857,8.721,8.721,0,0,1,2.913,2.314,8.843,8.843,0,0,1,1.714,3.342,15.233,15.233,0,0,1,.6,4.028v.685a2.373,2.373,0,0,1-.086.771H344.325a4.628,4.628,0,0,0,1.628,2.828,4.727,4.727,0,0,0,3.085.943,7.547,7.547,0,0,0,2.485-.428,10.492,10.492,0,0,0,2.228-1.542l3.171,2.828a11.174,11.174,0,0,1-3.342,2.656,10.843,10.843,0,0,1-4.456.857Zm3.6-11.74a5.644,5.644,0,0,0-1.285-3,3.561,3.561,0,0,0-2.828-1.114,3.871,3.871,0,0,0-2.828,1.114,5.727,5.727,0,0,0-1.371,3Zm19.795-15.253h5.827v4.884h-5.827Zm.171,7.112h5.484V361h-5.484Zm11.311,0h5.57v2.828a14.9,14.9,0,0,1,1.028-1.2,8.422,8.422,0,0,1,1.285-1.028,6.426,6.426,0,0,1,1.542-.686,6.681,6.681,0,0,1,1.885-.257,5.985,5.985,0,0,1,4.884,1.971,7.674,7.674,0,0,1,1.714,5.227V361h-5.484V350.2a4.472,4.472,0,0,0-.857-3,3.051,3.051,0,0,0-2.485-1.028A3.17,3.17,0,0,0,390.6,347.2a4.326,4.326,0,0,0-.857,3V361h-5.57L384,341.545Zm23.308-7.112h5.827v4.884h-5.827Zm.171,7.112h5.484V361H407.48ZM425.3,361.254A9.554,9.554,0,0,1,422.99,361a4.534,4.534,0,0,1-1.8-.943,3.979,3.979,0,0,1-1.114-1.714,8.926,8.926,0,0,1-.428-2.828v-9.255h-2.314v-4.713h2.314v-4.97h5.484v4.97h4.542v4.713h-4.542v8.4c0,1.285.6,1.885,1.8,1.885a5.316,5.316,0,0,0,2.742-.771v4.37a12.613,12.613,0,0,1-1.885.857,10.547,10.547,0,0,1-2.485.257Zm9.255-26.821h5.827v4.884h-5.827Zm.171,7.112h5.484V361h-5.484Zm16.8,19.795a8.846,8.846,0,0,1-2.571-.343,6.384,6.384,0,0,1-2.142-1.114,5.009,5.009,0,0,1-1.457-1.8,6.261,6.261,0,0,1-.514-2.571v-.086a5.625,5.625,0,0,1,.6-2.742,5.169,5.169,0,0,1,1.628-1.971,7.331,7.331,0,0,1,2.485-1.114,11.991,11.991,0,0,1,3.171-.343,10.818,10.818,0,0,1,2.571.257,15.641,15.641,0,0,1,2.142.6v-.343a3.3,3.3,0,0,0-1.028-2.656,4.666,4.666,0,0,0-3.171-.943,13.837,13.837,0,0,0-2.828.257,14.654,14.654,0,0,0-2.571.771l-1.371-4.2a25.465,25.465,0,0,1,3.342-1.114,19.8,19.8,0,0,1,4.2-.428,10.9,10.9,0,0,1,3.942.6,6.948,6.948,0,0,1,2.656,1.628,6.571,6.571,0,0,1,1.628,2.656,11.216,11.216,0,0,1,.514,3.513v11.311h-5.313v-2.057a8.558,8.558,0,0,1-2.485,1.714,12.576,12.576,0,0,1-3.428.514Zm1.628-3.77a5.348,5.348,0,0,0,3.171-.943,3.046,3.046,0,0,0,1.2-2.485V353.2a5.171,5.171,0,0,0-1.628-.514,6.72,6.72,0,0,0-1.885-.171,5.3,5.3,0,0,0-2.828.686,2.194,2.194,0,0,0-1.028,1.971v.086a1.814,1.814,0,0,0,.857,1.714,3.96,3.96,0,0,0,2.142.6Zm21.508,3.685a9.554,9.554,0,0,1-2.314-.257,4.534,4.534,0,0,1-1.8-.943,5.663,5.663,0,0,1-1.2-1.714,8.927,8.927,0,0,1-.428-2.828v-9.255h-2.314v-4.713h2.314v-4.97H474.4v4.97h4.627v4.713H474.4v8.4c0,1.285.6,1.885,1.8,1.885a5.316,5.316,0,0,0,2.742-.771v4.37a12.613,12.613,0,0,1-1.885.857,9.8,9.8,0,0,1-2.4.257ZM484,334.433h5.827v4.884H484Zm.171,7.112h5.484V361h-5.484Zm9.34,0h5.827l4.37,13.025,4.37-13.025h5.741L506.2,361.083h-4.97Zm32.134,19.88a12.025,12.025,0,0,1-4.028-.685,10.541,10.541,0,0,1-3.256-2.057,9.026,9.026,0,0,1-2.142-3.171,10.357,10.357,0,0,1-.771-4.113v-.086a12.3,12.3,0,0,1,.686-3.942,9.923,9.923,0,0,1,1.971-3.171,8.368,8.368,0,0,1,3-2.142,9.8,9.8,0,0,1,3.942-.771,9.193,9.193,0,0,1,4.2.857,10.037,10.037,0,0,1,3,2.314,8.842,8.842,0,0,1,1.714,3.342,12.388,12.388,0,0,1,.6,4.028v.685a2.373,2.373,0,0,1-.086.771H520.934a4.628,4.628,0,0,0,1.628,2.828,4.727,4.727,0,0,0,3.085.943,7.961,7.961,0,0,0,2.485-.428,10.492,10.492,0,0,0,2.228-1.542l3.171,2.828a11.175,11.175,0,0,1-3.342,2.656,12.256,12.256,0,0,1-4.542.857Zm3.513-11.74a5.644,5.644,0,0,0-1.285-3,3.5,3.5,0,0,0-2.742-1.114,3.871,3.871,0,0,0-2.828,1.114,5.726,5.726,0,0,0-1.371,3ZM276.8,296.386h5.57v9.769c.343-.428.686-.771,1.028-1.2a8.424,8.424,0,0,1,1.285-1.028,6.086,6.086,0,0,1,1.542-.686,6.722,6.722,0,0,1,1.885-.171A6.208,6.208,0,0,1,293,304.955a7.91,7.91,0,0,1,1.714,5.313v12.6h-5.57v-10.8a4.472,4.472,0,0,0-.857-3,3.169,3.169,0,0,0-2.485-1.028,3.051,3.051,0,0,0-2.485,1.028,4.331,4.331,0,0,0-.943,3v10.8H276.8V296.386Zm-8.912,26.821a9.558,9.558,0,0,1-2.314-.257,4.534,4.534,0,0,1-1.8-.943,3.806,3.806,0,0,1-1.114-1.8,8.769,8.769,0,0,1-.428-2.742v-9.255H259.92V303.5h2.314v-4.97h5.484v4.97h4.542v4.713h-4.542v8.4c0,1.285.6,1.885,1.8,1.885a6.183,6.183,0,0,0,2.742-.686v4.37a12.614,12.614,0,0,1-1.885.857,21.226,21.226,0,0,1-2.485.171Zm40.532.086a12.025,12.025,0,0,1-4.027-.686,9.991,9.991,0,0,1-3.256-2.057,9.025,9.025,0,0,1-2.142-3.171,10.356,10.356,0,0,1-.771-4.113v-.086a12.3,12.3,0,0,1,.685-3.942,9.759,9.759,0,0,1,1.971-3.256,8.691,8.691,0,0,1,3.085-2.142,9.8,9.8,0,0,1,3.942-.771,9.193,9.193,0,0,1,4.2.857,9.066,9.066,0,0,1,3,2.314,9.525,9.525,0,0,1,1.714,3.342,14.494,14.494,0,0,1,.514,4.713,2.372,2.372,0,0,1-.086.771H303.708a4.628,4.628,0,0,0,1.628,2.828,5.267,5.267,0,0,0,3.085.943,5.86,5.86,0,0,0,2.485-.514,6.7,6.7,0,0,0,2.228-1.457l3.171,2.742a9.981,9.981,0,0,1-3.342,2.656,8.682,8.682,0,0,1-4.542,1.028Zm3.513-11.654a5.644,5.644,0,0,0-1.285-3,4.146,4.146,0,0,0-5.656,0,5.727,5.727,0,0,0-1.371,3Z" transform="translate(-20.5 -246.6)" fill="#fff"/>
</svg>
