<svg xmlns="http://www.w3.org/2000/svg" width="153.815" height="38.019" viewBox="0 0 153.815 38.019">
  <path id="idh-the-sustainable-trade-initiative-logo-vector" d="M20.5,284.594h7.589V261.8H20.5ZM69.928,261.8H66.672V246.6H59.084v15.2H53.546V250.394H45.957V261.8H42.163a11.408,11.408,0,1,0,11.408,11.408v-3.794h5.538v11.408H66.7V269.417h3.256a3.786,3.786,0,0,1,3.794,3.794V284.62h7.589V273.211A11.417,11.417,0,0,0,69.928,261.8Zm-27.79,15.2h0a3.824,3.824,0,0,1-3.82-3.794h0a3.786,3.786,0,0,1,3.794-3.794h3.794v3.794a3.748,3.748,0,0,1-3.769,3.794Zm73.116-7.46a4.6,4.6,0,0,1-1.282-.205,4.118,4.118,0,0,1-1.231-.667l.718-1.077a4.23,4.23,0,0,0,.949.513,2.332,2.332,0,0,0,.9.179.841.841,0,0,0,.538-.128.391.391,0,0,0,.179-.308v-.026a.313.313,0,0,0-.1-.231.921.921,0,0,0-.256-.179,1.35,1.35,0,0,0-.385-.128,3.1,3.1,0,0,0-.461-.128,5.764,5.764,0,0,1-.615-.205,2.51,2.51,0,0,1-.564-.333,1.489,1.489,0,0,1-.41-.487,1.561,1.561,0,0,1-.154-.718v-.026a1.582,1.582,0,0,1,.179-.795,1.683,1.683,0,0,1,.461-.59,2.407,2.407,0,0,1,.667-.359,2.946,2.946,0,0,1,.846-.1,4.417,4.417,0,0,1,1.128.154,4.915,4.915,0,0,1,1.051.487l-.641,1.154a6.4,6.4,0,0,0-.846-.41,2.13,2.13,0,0,0-.718-.154,1.024,1.024,0,0,0-.461.1.354.354,0,0,0-.154.282v.026a.233.233,0,0,0,.1.205,2.218,2.218,0,0,0,.256.179,2.989,2.989,0,0,0,.385.154,4.842,4.842,0,0,0,.461.154l.615.231a2.51,2.51,0,0,1,.564.333,1.268,1.268,0,0,1,.41.487,1.384,1.384,0,0,1,.154.692v.026a1.683,1.683,0,0,1-.179.82,1.751,1.751,0,0,1-.461.59,2.166,2.166,0,0,1-.692.333,3.185,3.185,0,0,1-.949.154Zm5.307,0a1.873,1.873,0,0,1-1.461-.59,2.342,2.342,0,0,1-.513-1.564V263.6h1.666v3.256a1.338,1.338,0,0,0,.256.9.9.9,0,0,0,.743.282.988.988,0,0,0,.769-.282,1.3,1.3,0,0,0,.282-.9V263.6h1.641v5.82H122.3v-.846c-.1.128-.205.231-.308.359a2.523,2.523,0,0,1-.385.308,3.634,3.634,0,0,1-.461.205,1.5,1.5,0,0,1-.59.1Zm6.922,0a4.433,4.433,0,0,1-1.256-.205,4.118,4.118,0,0,1-1.231-.667l.692-1.077a4.31,4.31,0,0,0,.949.513,2.3,2.3,0,0,0,.872.179.842.842,0,0,0,.538-.128.365.365,0,0,0,.154-.308v-.026a.313.313,0,0,0-.1-.231.92.92,0,0,0-.256-.179,2.253,2.253,0,0,0-.385-.128,3.956,3.956,0,0,0-.436-.128,5.762,5.762,0,0,1-.615-.205,1.818,1.818,0,0,1-.564-.333,1.489,1.489,0,0,1-.41-.487,1.561,1.561,0,0,1-.154-.718v-.026a1.582,1.582,0,0,1,.179-.795,1.482,1.482,0,0,1,.461-.59,2.093,2.093,0,0,1,.667-.359,2.882,2.882,0,0,1,.82-.1,3.864,3.864,0,0,1,2.179.641l-.615,1.154c-.282-.154-.564-.282-.846-.41a2.13,2.13,0,0,0-.718-.154.829.829,0,0,0-.436.1.354.354,0,0,0-.154.282v.026a.233.233,0,0,0,.1.205,2.218,2.218,0,0,0,.256.179c.1.051.231.1.359.154.154.051.282.1.461.154l.615.231a2.51,2.51,0,0,1,.564.333,1.268,1.268,0,0,1,.41.487,1.384,1.384,0,0,1,.154.692v.026a1.683,1.683,0,0,1-.179.82,1.482,1.482,0,0,1-.461.59,2.061,2.061,0,0,1-.718.333,2.752,2.752,0,0,1-.9.154Zm5.358-.026a2.859,2.859,0,0,1-.692-.077,1.356,1.356,0,0,1-.538-.282,1.139,1.139,0,0,1-.333-.538,2.623,2.623,0,0,1-.128-.82v-2.769h-.692v-1.41h.692v-1.487h1.641v1.487h1.359v1.41H132.79v2.512c0,.385.179.564.538.564a1.85,1.85,0,0,0,.82-.205v1.307a3.774,3.774,0,0,1-.564.256,5.97,5.97,0,0,1-.743.051Zm4.23.026a2.429,2.429,0,0,1-.769-.1,1.91,1.91,0,0,1-.641-.333,1.59,1.59,0,0,1-.436-.564,1.839,1.839,0,0,1-.154-.743v-.026a1.684,1.684,0,0,1,.179-.82,1.307,1.307,0,0,1,.487-.564,1.987,1.987,0,0,1,.743-.333,3.685,3.685,0,0,1,.949-.128,3.388,3.388,0,0,1,.769.077,6,6,0,0,1,.641.179v-.1a1.024,1.024,0,0,0-.308-.795,1.369,1.369,0,0,0-.923-.282,4.322,4.322,0,0,0-.846.077,4.388,4.388,0,0,0-.769.231l-.41-1.256a6.528,6.528,0,0,1,1-.333,5.924,5.924,0,0,1,1.256-.128,3.694,3.694,0,0,1,1.154.154,1.9,1.9,0,0,1,.795.487,1.966,1.966,0,0,1,.487.795,3.356,3.356,0,0,1,.154,1.051v3.384H138.84v-.641a2.118,2.118,0,0,1-.718.538,3.1,3.1,0,0,1-1.051.179Zm.513-1.154a1.545,1.545,0,0,0,.949-.282.864.864,0,0,0,.359-.718v-.282a1.548,1.548,0,0,0-.487-.154,2.013,2.013,0,0,0-.564-.051,1.585,1.585,0,0,0-.846.205.656.656,0,0,0-.308.59v.026a.569.569,0,0,0,.256.513,1.383,1.383,0,0,0,.641.154Zm4.281-6.9h1.743v1.461h-1.743Zm.026,2.1h1.641v5.82h-1.641Zm3.2,0h1.666v.846c.1-.128.205-.231.308-.359a2.522,2.522,0,0,1,.385-.308,1.924,1.924,0,0,1,.461-.205,2.011,2.011,0,0,1,.564-.051,1.857,1.857,0,0,1,1.461.564,2.242,2.242,0,0,1,.513,1.589v3.769h-1.641v-3.256a1.338,1.338,0,0,0-.256-.9.913.913,0,0,0-.743-.308.948.948,0,0,0-.743.308,1.3,1.3,0,0,0-.282.9v3.23h-1.666l-.026-5.82Zm8.435,5.948a2.7,2.7,0,0,1-.795-.1,1.91,1.91,0,0,1-.641-.333,1.59,1.59,0,0,1-.436-.564,1.839,1.839,0,0,1-.154-.743v-.026a1.683,1.683,0,0,1,.179-.82,1.5,1.5,0,0,1,.487-.564,2.192,2.192,0,0,1,.743-.333,3.685,3.685,0,0,1,.949-.128,3.234,3.234,0,0,1,.769.077,4.685,4.685,0,0,1,.641.179v-.1a1.024,1.024,0,0,0-.308-.795,1.4,1.4,0,0,0-.949-.282,4.322,4.322,0,0,0-.846.077,5.154,5.154,0,0,0-.769.231l-.41-1.256a7.612,7.612,0,0,1,1-.333,5.924,5.924,0,0,1,1.256-.128,3.988,3.988,0,0,1,1.179.154,1.9,1.9,0,0,1,.795.487,2.294,2.294,0,0,1,.487.795,3.356,3.356,0,0,1,.154,1.051v3.384h-1.589v-.641a2.215,2.215,0,0,1-.743.538,2.789,2.789,0,0,1-1,.179Zm.487-1.154a1.545,1.545,0,0,0,.949-.282.864.864,0,0,0,.359-.718v-.282a1.548,1.548,0,0,0-.487-.154,2.1,2.1,0,0,0-.564-.051,1.43,1.43,0,0,0-.82.205.656.656,0,0,0-.308.59v.026a.569.569,0,0,0,.256.513,1.269,1.269,0,0,0,.615.154Zm7.742,1.154a2.066,2.066,0,0,1-1.1-.256,2.352,2.352,0,0,1-.718-.615v.769H158.3v-7.922h1.666v2.948a2.629,2.629,0,0,1,.718-.692,1.972,1.972,0,0,1,1.077-.256,2.527,2.527,0,0,1,.974.18,2.195,2.195,0,0,1,.846.59,2.712,2.712,0,0,1,.59.949,3.361,3.361,0,0,1,.231,1.282v.026a3.27,3.27,0,0,1-.231,1.282,3.352,3.352,0,0,1-.59.923,2.195,2.195,0,0,1-.846.59,2.362,2.362,0,0,1-.974.205Zm-.41-1.41a1.392,1.392,0,0,0,1.025-.41,1.707,1.707,0,0,0,.308-.513,1.816,1.816,0,0,0,.128-.667v-.026a1.926,1.926,0,0,0-.128-.667,1.708,1.708,0,0,0-.308-.513,1.522,1.522,0,0,0-.461-.333,1.379,1.379,0,0,0-.564-.1,1.26,1.26,0,0,0-.538.1.95.95,0,0,0-.436.333,1.706,1.706,0,0,0-.308.513,1.925,1.925,0,0,0-.128.667v.026a1.926,1.926,0,0,0,.128.667,1.706,1.706,0,0,0,.308.513,1.235,1.235,0,0,0,.436.308,1.674,1.674,0,0,0,.538.1Zm4.358-6.64h1.641v7.922h-1.641Zm5.922,8.05a3.6,3.6,0,0,1-1.2-.205,2.99,2.99,0,0,1-.974-.615,2.7,2.7,0,0,1-.641-.949,3.1,3.1,0,0,1-.231-1.231v-.026a3.679,3.679,0,0,1,.205-1.179,2.92,2.92,0,0,1,.59-.974,2.6,2.6,0,0,1,.923-.641,2.934,2.934,0,0,1,1.179-.231,2.75,2.75,0,0,1,1.256.256,3,3,0,0,1,.9.692,2.849,2.849,0,0,1,.513,1,4.421,4.421,0,0,1,.154,1.641h-4.076a1.385,1.385,0,0,0,.487.846,1.576,1.576,0,0,0,.923.282,1.753,1.753,0,0,0,.743-.154,2.943,2.943,0,0,0,.667-.436l.949.82a2.986,2.986,0,0,1-1,.795,2.483,2.483,0,0,1-1.359.308Zm1.077-3.487a1.689,1.689,0,0,0-.385-.9,1.241,1.241,0,0,0-1.692,0,1.713,1.713,0,0,0-.41.9ZM94.514,280.9a2.86,2.86,0,0,1-.692-.077,1.358,1.358,0,0,1-.538-.282,1.7,1.7,0,0,1-.359-.513,2.671,2.671,0,0,1-.128-.846v-2.769H92.1v-1.41H92.8v-1.487h1.641v1.487H95.8v1.41H94.462v2.512c0,.385.179.564.538.564a1.59,1.59,0,0,0,.82-.231v1.308a3.771,3.771,0,0,1-.564.256,3.313,3.313,0,0,1-.743.077Zm2.923-5.9h1.641v1.154a2.93,2.93,0,0,1,.692-.949,1.663,1.663,0,0,1,1.179-.333V276.6h-.077a1.64,1.64,0,0,0-1.282.513,2.235,2.235,0,0,0-.487,1.564v2.154H97.462v-5.82Zm6.23,5.922a2.43,2.43,0,0,1-.769-.1,1.909,1.909,0,0,1-.641-.333,1.436,1.436,0,0,1-.41-.538,1.873,1.873,0,0,1-.154-.769v-.026a1.683,1.683,0,0,1,.179-.82,1.821,1.821,0,0,1,.487-.59,2.194,2.194,0,0,1,.743-.333,3.713,3.713,0,0,1,.949-.1,3.548,3.548,0,0,1,.769.077,4.681,4.681,0,0,1,.641.179v-.1a.988.988,0,0,0-.308-.795,1.368,1.368,0,0,0-.923-.282,4.324,4.324,0,0,0-.846.077,5.158,5.158,0,0,0-.769.231l-.41-1.256a7.616,7.616,0,0,1,1-.333,5.924,5.924,0,0,1,1.256-.128,3.262,3.262,0,0,1,1.179.179,1.9,1.9,0,0,1,.795.487,1.673,1.673,0,0,1,.461.795,3.356,3.356,0,0,1,.154,1.051v3.384h-1.589v-.615a2.823,2.823,0,0,1-.718.513,4.539,4.539,0,0,1-1.077.154Zm.513-1.128a1.467,1.467,0,0,0,.923-.282.911.911,0,0,0,.359-.743v-.282a1.548,1.548,0,0,0-.487-.154,2.1,2.1,0,0,0-.564-.051,1.489,1.489,0,0,0-.82.205.657.657,0,0,0-.308.59v.026a.543.543,0,0,0,.256.513,1.12,1.12,0,0,0,.641.179Zm6.768,1.128a2.331,2.331,0,0,1-1-.205,3.05,3.05,0,0,1-.846-.564,2.712,2.712,0,0,1-.59-.949,3.361,3.361,0,0,1-.231-1.282V277.9a3.27,3.27,0,0,1,.231-1.282,2.6,2.6,0,0,1,.59-.923,2.195,2.195,0,0,1,.846-.59,2.681,2.681,0,0,1,1-.205,1.972,1.972,0,0,1,1.077.256,2.835,2.835,0,0,1,.718.615V272.9h1.641v7.922h-1.641V280a2.323,2.323,0,0,1-.743.667,2.051,2.051,0,0,1-1.051.256Zm.436-1.384a1.676,1.676,0,0,0,.538-.1.951.951,0,0,0,.436-.333,1.44,1.44,0,0,0,.308-.513,1.46,1.46,0,0,0,.1-.667V277.9a2.789,2.789,0,0,0-.1-.667,1.707,1.707,0,0,0-.308-.513,1.792,1.792,0,0,0-.436-.333,1.377,1.377,0,0,0-.538-.128,1.442,1.442,0,0,0-1,.461,2.1,2.1,0,0,0-.308.513,1.822,1.822,0,0,0-.1.667v.026a1.912,1.912,0,0,0,.1.667,2.1,2.1,0,0,0,.308.513,1.524,1.524,0,0,0,.461.333A1.676,1.676,0,0,0,111.383,279.543Zm7.435,1.41a3.6,3.6,0,0,1-1.2-.205,3.154,3.154,0,0,1-.974-.615,2.955,2.955,0,0,1-.641-.949,3.1,3.1,0,0,1-.231-1.231v-.026a3.679,3.679,0,0,1,.205-1.179,2.767,2.767,0,0,1,1.513-1.589,2.81,2.81,0,0,1,1.154-.231,2.75,2.75,0,0,1,1.256.256,2.609,2.609,0,0,1,.872.692,2.645,2.645,0,0,1,.513,1,4.558,4.558,0,0,1,.179,1.2v.205a.71.71,0,0,1-.026.231h-4.051a1.385,1.385,0,0,0,.487.846,1.414,1.414,0,0,0,.923.282,2.258,2.258,0,0,0,.743-.128,3.14,3.14,0,0,0,.667-.461l.949.846a3.344,3.344,0,0,1-1,.795,3.244,3.244,0,0,1-1.333.256Zm1.077-3.512a1.688,1.688,0,0,0-.385-.9,1.065,1.065,0,0,0-.846-.333,1.158,1.158,0,0,0-.846.333,1.713,1.713,0,0,0-.41.9Zm5.922-4.563h1.743v1.461h-1.743Zm.051,2.128h1.641v5.82h-1.641Zm3.384,0h1.666v.846a4.466,4.466,0,0,1,.308-.359,2.521,2.521,0,0,1,.385-.308,1.921,1.921,0,0,1,.461-.205,2,2,0,0,1,.564-.077,1.791,1.791,0,0,1,1.461.59,2.3,2.3,0,0,1,.513,1.564v3.769h-1.641V277.6a1.338,1.338,0,0,0-.256-.9.913.913,0,0,0-.743-.308.948.948,0,0,0-.743.308,1.3,1.3,0,0,0-.256.9v3.23H129.3l-.051-5.82Zm6.973-2.128h1.743v1.461h-1.743Zm.051,2.128h1.641v5.82h-1.641Zm5.332,5.9a2.86,2.86,0,0,1-.692-.077,1.357,1.357,0,0,1-.538-.282,1.191,1.191,0,0,1-.333-.513,2.67,2.67,0,0,1-.128-.846v-2.769h-.692v-1.41h.692v-1.487h1.641v1.487h1.359v1.41h-1.359v2.512c0,.385.179.564.538.564a1.59,1.59,0,0,0,.82-.231v1.308a3.771,3.771,0,0,1-.564.256,3.156,3.156,0,0,1-.743.077Zm2.769-8.024h1.743v1.461h-1.743Zm.051,2.128h1.641v5.82h-1.641Zm5.025,5.922a2.648,2.648,0,0,1-.769-.1,1.91,1.91,0,0,1-.641-.333,1.5,1.5,0,0,1-.436-.538,1.873,1.873,0,0,1-.154-.769v-.026a1.683,1.683,0,0,1,.179-.82,1.547,1.547,0,0,1,.487-.59,2.194,2.194,0,0,1,.743-.333,3.587,3.587,0,0,1,.949-.1,3.232,3.232,0,0,1,.769.077,4.682,4.682,0,0,1,.641.179v-.1a.988.988,0,0,0-.308-.795,1.4,1.4,0,0,0-.949-.282,4.142,4.142,0,0,0-.846.077,4.39,4.39,0,0,0-.769.231l-.41-1.256a7.616,7.616,0,0,1,1-.333,5.924,5.924,0,0,1,1.256-.128,3.261,3.261,0,0,1,1.179.179,2.079,2.079,0,0,1,.795.487,1.967,1.967,0,0,1,.487.795,3.356,3.356,0,0,1,.154,1.051v3.384h-1.589v-.615a2.559,2.559,0,0,1-.743.513,3.762,3.762,0,0,1-1.025.154Zm.487-1.128a1.6,1.6,0,0,0,.949-.282.911.911,0,0,0,.359-.743v-.282a1.548,1.548,0,0,0-.487-.154,2.013,2.013,0,0,0-.564-.051,1.585,1.585,0,0,0-.846.205.657.657,0,0,0-.308.59v.026a.543.543,0,0,0,.256.513,1.185,1.185,0,0,0,.641.179Zm6.435,1.1a2.86,2.86,0,0,1-.692-.077,1.357,1.357,0,0,1-.538-.282,1.7,1.7,0,0,1-.359-.513,2.672,2.672,0,0,1-.128-.846v-2.769h-.692v-1.41h.692v-1.487H156.3v1.487h1.384v1.41H156.3v2.512c0,.385.179.564.538.564a1.59,1.59,0,0,0,.82-.231v1.308a3.771,3.771,0,0,1-.564.256,2.931,2.931,0,0,1-.718.077Zm2.794-8.024h1.743v1.461H159.17Zm.051,2.128h1.641v5.82h-1.641Zm2.794,0h1.743l1.307,3.9,1.307-3.9h1.718l-2.282,5.845h-1.487Zm9.614,5.948a3.6,3.6,0,0,1-1.2-.205,3.154,3.154,0,0,1-.974-.615,2.7,2.7,0,0,1-.641-.949,3.1,3.1,0,0,1-.231-1.231v-.026a3.679,3.679,0,0,1,.205-1.179,2.969,2.969,0,0,1,.59-.949,2.5,2.5,0,0,1,.9-.641,2.933,2.933,0,0,1,1.179-.231,2.751,2.751,0,0,1,1.256.256,3,3,0,0,1,.9.692,2.645,2.645,0,0,1,.513,1,3.706,3.706,0,0,1,.179,1.2v.205a.71.71,0,0,1-.026.231h-4.051a1.385,1.385,0,0,0,.487.846,1.414,1.414,0,0,0,.923.282,2.382,2.382,0,0,0,.743-.128,3.14,3.14,0,0,0,.667-.461l.949.846a3.343,3.343,0,0,1-1,.795,3.666,3.666,0,0,1-1.359.256Zm1.051-3.512a1.688,1.688,0,0,0-.385-.9,1.046,1.046,0,0,0-.82-.333,1.158,1.158,0,0,0-.846.333,1.713,1.713,0,0,0-.41.9ZM97.18,261.5h1.666v2.923c.1-.128.205-.231.308-.359a2.518,2.518,0,0,1,.385-.308,1.821,1.821,0,0,1,.461-.205,2.012,2.012,0,0,1,.564-.051,1.857,1.857,0,0,1,1.461.564,2.366,2.366,0,0,1,.513,1.589v3.769h-1.666v-3.23a1.338,1.338,0,0,0-.256-.9.948.948,0,0,0-.743-.308.913.913,0,0,0-.743.308,1.3,1.3,0,0,0-.282.9v3.23H97.18V261.5Zm-2.666,8.024a2.86,2.86,0,0,1-.692-.077,1.356,1.356,0,0,1-.538-.282,1.139,1.139,0,0,1-.333-.538,2.623,2.623,0,0,1-.128-.82v-2.769h-.692v-1.41h.692v-1.487h1.641v1.487h1.359v1.41H94.462v2.512c0,.385.179.564.538.564a1.85,1.85,0,0,0,.82-.205v1.307a3.774,3.774,0,0,1-.564.256,6.351,6.351,0,0,1-.743.051Zm12.126.026a3.6,3.6,0,0,1-1.2-.205,2.99,2.99,0,0,1-.974-.615,2.7,2.7,0,0,1-.641-.949,3.1,3.1,0,0,1-.231-1.231v-.026a3.679,3.679,0,0,1,.205-1.179,2.92,2.92,0,0,1,.59-.974,2.6,2.6,0,0,1,.923-.641,2.934,2.934,0,0,1,1.179-.231,2.751,2.751,0,0,1,1.256.256,2.712,2.712,0,0,1,.9.692,2.849,2.849,0,0,1,.513,1,4.336,4.336,0,0,1,.154,1.41.71.71,0,0,1-.026.231H105.23a1.385,1.385,0,0,0,.487.846,1.576,1.576,0,0,0,.923.282,1.753,1.753,0,0,0,.743-.154,2,2,0,0,0,.667-.436l.949.82a2.986,2.986,0,0,1-1,.795,2.6,2.6,0,0,1-1.359.308Zm1.051-3.487a1.689,1.689,0,0,0-.385-.9,1.241,1.241,0,0,0-1.692,0,1.713,1.713,0,0,0-.41.9Z" transform="translate(-20.5 -246.6)" fill="#fff"/>
</svg>
